<svg width="24" height="24" viewBox="0 0 24 24" fill="none" xmlns="http://www.w3.org/2000/svg">
<g clip-path="url(#clip0_324_2)">
<path d="M12.9446 3.46445L2.87 1.96886C2.4025 1.89764 1.92538 2.02261 1.56788 2.31823C1.21038 2.62326 1 3.06132 1 3.5182V22.3939C1 22.887 1.4125 23.2901 1.91712 23.2901H4.89675V18.587C4.89675 17.7176 5.61175 17.0189 6.50137 17.0189H8.7935C9.68313 17.0189 10.3981 17.7176 10.3981 18.587V23.2901H14.2935V5.01514C14.2921 4.24382 13.7229 3.59076 12.9446 3.46445ZM6.04212 15.0032H4.66712C4.28762 15.0032 3.97962 14.7022 3.97962 14.3314C3.97962 13.9605 4.28762 13.6595 4.66712 13.6595H6.04212C6.42162 13.6595 6.72962 13.9605 6.72962 14.3314C6.72962 14.7022 6.42162 15.0032 6.04212 15.0032ZM6.04212 12.3157H4.66712C4.28762 12.3157 3.97962 12.0147 3.97962 11.6439C3.97962 11.273 4.28762 10.972 4.66712 10.972H6.04212C6.42162 10.972 6.72962 11.273 6.72962 11.6439C6.72962 12.0147 6.42162 12.3157 6.04212 12.3157ZM6.04212 9.62823H4.66712C4.28762 9.62823 3.97962 9.32723 3.97962 8.95636C3.97962 8.58548 4.28762 8.28448 4.66712 8.28448H6.04212C6.42162 8.28448 6.72962 8.58548 6.72962 8.95636C6.72962 9.32723 6.42162 9.62823 6.04212 9.62823ZM6.04212 6.94073H4.66712C4.28762 6.94073 3.97962 6.63973 3.97962 6.26886C3.97962 5.89798 4.28762 5.59698 4.66712 5.59698H6.04212C6.42162 5.59698 6.72962 5.89798 6.72962 6.26886C6.72962 6.63973 6.42162 6.94073 6.04212 6.94073ZM10.625 15.0032H9.25C8.8705 15.0032 8.5625 14.7022 8.5625 14.3314C8.5625 13.9605 8.8705 13.6595 9.25 13.6595H10.625C11.0045 13.6595 11.3125 13.9605 11.3125 14.3314C11.3125 14.7022 11.0045 15.0032 10.625 15.0032ZM10.625 12.3157H9.25C8.8705 12.3157 8.5625 12.0147 8.5625 11.6439C8.5625 11.273 8.8705 10.972 9.25 10.972H10.625C11.0045 10.972 11.3125 11.273 11.3125 11.6439C11.3125 12.0147 11.0045 12.3157 10.625 12.3157ZM10.625 9.62823H9.25C8.8705 9.62823 8.5625 9.32723 8.5625 8.95636C8.5625 8.58548 8.8705 8.28448 9.25 8.28448H10.625C11.0045 8.28448 11.3125 8.58548 11.3125 8.95636C11.3125 9.32723 11.0045 9.62823 10.625 9.62823ZM10.625 6.94073H9.25C8.8705 6.94073 8.5625 6.63973 8.5625 6.26886C8.5625 5.89798 8.8705 5.59698 9.25 5.59698H10.625C11.0045 5.59698 11.3125 5.89798 11.3125 6.26886C11.3125 6.63973 11.0045 6.94073 10.625 6.94073Z" fill="#232536"/>
<path d="M21.7355 11.5029L15.2083 10.1673V23.2903H21.3958C22.28 23.2903 23.0005 22.5875 23.0005 21.7222V13.0348C23.0005 12.2944 22.4835 11.6642 21.7355 11.5029ZM19.563 20.6028H18.188C17.8085 20.6028 17.5005 20.3018 17.5005 19.9309C17.5005 19.5601 17.8085 19.2591 18.188 19.2591H19.563C19.9425 19.2591 20.2505 19.5601 20.2505 19.9309C20.2505 20.3018 19.9425 20.6028 19.563 20.6028ZM19.563 17.9153H18.188C17.8085 17.9153 17.5005 17.6143 17.5005 17.2434C17.5005 16.8726 17.8085 16.5716 18.188 16.5716H19.563C19.9425 16.5716 20.2505 16.8726 20.2505 17.2434C20.2505 17.6143 19.9425 17.9153 19.563 17.9153ZM19.563 15.2278H18.188C17.8085 15.2278 17.5005 14.9268 17.5005 14.5559C17.5005 14.1851 17.8085 13.8841 18.188 13.8841H19.563C19.9425 13.8841 20.2505 14.1851 20.2505 14.5559C20.2505 14.9268 19.9425 15.2278 19.563 15.2278Z" fill="#FFD050"/>
</g>
<defs>
<clipPath id="clip0_324_2">
<rect width="24" height="24" fill="white"/>
</clipPath>
</defs>
</svg>
